<svg xmlns="http://www.w3.org/2000/svg" xmlns:xlink="http://www.w3.org/1999/xlink" width="173.912" height="174" viewBox="0 0 173.912 174"><defs><clipPath id="a"><ellipse cx="86.956" cy="87" rx="86.956" ry="87"/></clipPath><clipPath id="b"><ellipse cx="86.956" cy="87" rx="86.956" ry="87" transform="translate(0.044)" fill="#963"/></clipPath><radialGradient id="c" cx="0.5" cy="0.5" r="0.5" gradientUnits="objectBoundingBox"><stop offset="0" stop-color="#83613b"/><stop offset="0.036" stop-color="#38101c"/><stop offset="0.122" stop-color="#38101c"/><stop offset="0.163" stop-color="#45260b"/><stop offset="0.223" stop-color="#38101c"/><stop offset="0.348" stop-color="#38101c"/><stop offset="0.523" stop-color="#38101c"/><stop offset="1" stop-color="#38101c"/></radialGradient><radialGradient id="d" cx="0.5" cy="0.5" r="0.5" gradientTransform="matrix(-1, 0, 0, 1, -217.466, 0)" gradientUnits="objectBoundingBox"><stop offset="0" stop-color="#624a2e"/><stop offset="0.036" stop-color="#6d5633"/><stop offset="0.122" stop-color="#816b3d"/><stop offset="0.223" stop-color="#907c45"/><stop offset="0.348" stop-color="#9b884a"/><stop offset="0.523" stop-color="#a18f4d"/><stop offset="1" stop-color="#38101c"/></radialGradient></defs><g transform="translate(-0.044)"><g transform="translate(0.044)" clip-path="url(#a)"><ellipse cx="86.956" cy="87" rx="86.956" ry="87" fill="#1e3a8a"/></g><g clip-path="url(#b)"><ellipse cx="7.934" cy="4.588" rx="7.934" ry="4.588" transform="translate(52.539 81.874) rotate(-108.216)" fill="#963"/><path d="M7.934,0c4.382,0,7.934,2.054,7.934,4.588S12.316,9.176,7.934,9.176,0,7.122,0,4.588,3.552,0,7.934,0Z" transform="translate(112.978 79.004) rotate(-71.766)" fill="#963"/><path d="M110.01,32.489c6.732,1.074,10.457,5.689,12.051,11.954,4.15,16.307-4.537,51.673-34.609,52.094-15.506.217-26.676-3.726-30.746-16.277s-5.738-32.778,3.1-44.114C70.94,21.885,94.3,21.751,110.01,32.489Z" fill="#070707" fill-rule="evenodd"/><path d="M74.446,115.623C46.3,127.961,37.86,134.538,34.522,137.492,29.38,142.043,26.36,159.6,23.327,174H150.673c-3.033-14.4-5.7-31.958-10.846-36.508-3.336-2.954-11.471-9.362-39.613-21.7Z" fill="#4063c7" stroke="#4c9dd2" stroke-linecap="round" stroke-linejoin="round" stroke-miterlimit="10" stroke-width="1.084" fill-rule="evenodd"/><path d="M73.51,91.029v33.365c7.514,8.885,19.813,9.2,27.328,0V91.029C100.838,74.185,73.51,74.185,73.51,91.029Z" fill="#963" fill-rule="evenodd"/><path d="M87.174,35.022c-45.863,0-29.369,59.754-26.373,64.166,3.3,4.864,18.963,13.421,26.373,13.421s23.07-9.64,26.375-14.5C116.543,93.692,133.038,35.022,87.174,35.022Z" fill="#963" fill-rule="evenodd"/><path d="M64.842,49.42c8.059,4.9,14.293-2.41,21.568.726s28.148-5.364,32.443,27.761c6.887-24.023-4.74-44.141-31-45.284-28.041-1.22-39.4,20.706-31.645,44.57C55.7,64.265,58.866,55.806,64.842,49.42Z" fill="#070707" fill-rule="evenodd"/><path d="M72.213,115.289l-9.691,5.245,14.053,19.479L87.237,129.9Z" fill="#fff" stroke="#fff" stroke-linecap="round" stroke-miterlimit="10" stroke-width="2" fill-rule="evenodd"/><path d="M102.26,115.289l9.691,5.245L97.9,140.013,87.237,129.9Z" fill="#fff" stroke="#fff" stroke-linecap="round" stroke-miterlimit="10" stroke-width="2" fill-rule="evenodd"/><path d="M64.129,47.357c.623,3.974,6.51,4.572,9.664,4.886,6.183.615,13.844-1.758,18.873-5.285a.469.469,0,0,0-.235-.868c-5.357-.335-10.217,3.413-15.6,3.864-3.9.327-9.179-.2-12.21-2.884a.3.3,0,0,0-.5.287Z"/><path d="M68.456,77.051s1.49,2.515,6.07,2.515,5.385-2.151,5.43-2.909a6.542,6.542,0,0,0-5.367-2.987C70.981,73.67,68.456,77.051,68.456,77.051Z" fill="#fff"/><circle cx="2.615" cy="2.615" r="2.615" transform="translate(71.716 74.004)" fill="url(#c)"/><path d="M74.331,74.267a2.352,2.352,0,1,1-2.351,2.352,2.355,2.355,0,0,1,2.351-2.352m0-.526a2.877,2.877,0,1,0,2.879,2.877,2.877,2.877,0,0,0-2.879-2.877Z" fill="#3e3428"/><circle cx="1.203" cy="1.203" r="1.203" transform="translate(73.128 75.416)"/><path d="M105.753,77.051s-1.489,2.516-6.07,2.516-5.384-2.151-5.43-2.909a6.544,6.544,0,0,1,5.368-2.988C103.231,73.67,105.753,77.051,105.753,77.051Z" fill="#fff"/><circle cx="2.615" cy="2.615" r="2.615" transform="translate(97.263 74.004)" fill="url(#d)"/><path d="M99.878,74.266a2.352,2.352,0,1,1-2.352,2.352,2.355,2.355,0,0,1,2.352-2.352m0-.525a2.878,2.878,0,1,0,2.878,2.878,2.879,2.879,0,0,0-2.878-2.878Z" fill="#3e3428"/><circle cx="1.203" cy="1.203" r="1.203" transform="translate(98.676 75.416)"/><path d="M82.061,89.112c-.716.435-.869,1.168-.129,1.7a7.719,7.719,0,0,0,4.461.973,9.034,9.034,0,0,0,4.694-.978c.683-.43,1.163-1.815.206-2.236-.181-.08-.463.008-.441.253.029.325.334.63.275.929-.079.4-.675.617-1,.74a9.633,9.633,0,0,1-3.173.475c-.935.025-5.768.093-4.764-1.724a.1.1,0,0,0-.134-.133Z"/><path d="M78.556,100.982c4.967,3.682,12.688,2.652,17.484-.776a.137.137,0,0,0-.138-.236c-5.877,2.53-11.194,3.151-17.21.691-.2-.082-.282.213-.136.321Z" fill="#1d1b1a"/><path d="M63.317,66.493c5.654-.83,11.083-1.646,16.338,1.308a.45.45,0,0,0,.454-.776c-4.354-2.692-12.443-3.808-16.848-.664a.073.073,0,0,0,.056.132Z"/><path d="M110.738,66.361c-4.4-3.144-12.493-2.027-16.848.664a.45.45,0,0,0,.454.776c5.255-2.953,10.684-2.138,16.338-1.308a.073.073,0,0,0,.056-.132Z"/><path d="M99.787,87.908c.243-.007.5-.021.758-.043,7.077-.593,8.821-3.772,9.615-7.79.877-4.412.932-5.946,2.072-6.353.834-.3,1.038-1.286,1.014-2.436s-.066-1.271-1.447-1.747a50.779,50.779,0,0,0-11.669-.645l-.019,1.187c3.57-.195,7.016.235,8.014.881,2.272,1.472,1.609,8.573-.305,12.092-1.33,2.441-4.848,3.685-8.018,3.737ZM86.56,71.215c-1.563.038-7.955-1.807-12.5-2.2-.322-.03-.653-.054-1-.072l-.018,1.19c3.695.169,7.523,1.006,8.832,2.978,2.152,3.238-1.713,11.154-5.209,12.916a9.156,9.156,0,0,1-3.932.826l-.021,1.121A9.738,9.738,0,0,0,81.852,82.1c1.423-2.77,1.128-6.592,4.632-6.6s3.04,3.743,4.291,6.512a8.927,8.927,0,0,0,9.012,5.9l.016-1.116a9.013,9.013,0,0,1-4.146-.806c-3.388-1.748-6.775-9.644-4.423-12.891,1.415-1.958,5.215-2.816,8.877-3.014l.019-1.187c-.28.015-.558.035-.825.062C95.209,69.328,90.242,71.119,86.56,71.215Zm-13.5-2.271a51.677,51.677,0,0,0-11.534.7c-1.411.487-1.456.614-1.556,1.761s.053,2.135.864,2.431c1.114.4,1.077,1.936,1.688,6.345.549,4.014,2.1,7.184,9.141,7.745.36.03.71.042,1.049.045l.021-1.121c-3.238.028-6.839-1.2-8.052-3.7-1.7-3.512-1.938-10.608.432-12.094,1.023-.642,4.418-1.086,7.929-.925Z" fill="#1e3a8a" fill-rule="evenodd"/><path d="M116.361,60.266a5.881,5.881,0,0,1-3.258-1.9,4.526,4.526,0,0,1-1.063-1.808c-.227-.716-.034-1.18-.583-1.788a.942.942,0,0,0-1.15-.148l-.014.011c.025-.227.059-.46.1-.705a.9.9,0,0,0-1.488-.867,2.889,2.889,0,0,0-.836,1.16,1.3,1.3,0,0,0-1.64-1.318,6.4,6.4,0,0,1-3.207-.3.851.851,0,0,0-.022-.416c-.413-1.291-1.34-2.033-1.928-3.221a1.443,1.443,0,0,0-2.619.342c-.011.051-.011.1-.02.147a8.751,8.751,0,0,0-.681-1.157.783.783,0,0,0-1.414.185,3.434,3.434,0,0,0-.122,1.536,9.5,9.5,0,0,1-1.425.466,1.046,1.046,0,0,0-.226-.137A15.935,15.935,0,0,1,89.9,47.832a1.287,1.287,0,0,0-1.612-.087,1.782,1.782,0,0,0-2.567.531c-2.531,3.714-4.356.3-6.3-.656a1.257,1.257,0,0,0-1.869,1.073,4.493,4.493,0,0,0,.05.54,5.011,5.011,0,0,1-.412-.6,1.641,1.641,0,0,0-2.538-.327,10.919,10.919,0,0,1-6,2.254,6.541,6.541,0,0,1-.841.022,1.07,1.07,0,0,0,.38-1.2c-.1-.24-.042-.1-.029.066a1.132,1.132,0,0,0-.821-1.079c-.914-.176-1.693-.676-2.617-.823a.681.681,0,0,0-.657,1.129c.08.085.153.166.228.25a1.043,1.043,0,0,0-.009.262c-.645-.509-1.279-1.1-2.029-1.7a.665.665,0,0,0-1.1.29c-1.7,7.241,9.145,6.011,14.111,3.773,3.5,4.329,11.134,5.185,13.321-.307C89.93,53.062,92.818,53.3,95.34,52.7a7.349,7.349,0,0,0,1.847-.567,7.944,7.944,0,0,0,9.954,3.347,1.4,1.4,0,0,0,.732-.583,6.146,6.146,0,0,0,1.324,4.462,8.148,8.148,0,0,0,6.838,3.305C117.307,62.55,117.818,60.5,116.361,60.266Z"/><path d="M61.4,38.864c.009-.061.015-.126.022-.19a1,1,0,0,0,.689-.771,1.133,1.133,0,0,0,1.475-1.209c-.125-2.026.16-3.386,2.281-3.894a18.4,18.4,0,0,1,5.168-.038,1.329,1.329,0,0,0,.933-2.251,5.816,5.816,0,0,0-2.173-1.3,3.794,3.794,0,0,1,1.142-.692,3.249,3.249,0,0,1,.792-.167,5.523,5.523,0,0,0-.02,1.75c.1.678,1.183.5,1.174-.159a2.45,2.45,0,0,1,.4-1.457,2.552,2.552,0,0,0,1.767.179,1.04,1.04,0,0,0,.718-.933,5.208,5.208,0,0,1,1.777.786c.632.419.981,1.1,1.745,1.3a.922.922,0,0,0,1.152-.877,2.569,2.569,0,0,0-1.541-2.3,3.46,3.46,0,0,1,3.986-1.115,1.05,1.05,0,0,0,.83,1.051,12.268,12.268,0,0,0,1.815.339,1.083,1.083,0,0,0,.331-.028,7.732,7.732,0,0,0,.38,2.2.561.561,0,0,0,1.1-.148c-.065-2.8,1.99-3.364,4.3-2.8a7.7,7.7,0,0,1,3.107,1.622c.77.652,1.253,1.586,2.13,2.113a.8.8,0,0,0,1.165-.474c.85-3.371-4.629-5.584-7.14-5.858A5.377,5.377,0,0,0,86.9,24.715a3.063,3.063,0,0,0-.336.339,1.118,1.118,0,0,0-.156-.227c-2.422-2.513-8.359-2.524-9.271,1.1a7.6,7.6,0,0,0-2.161-.3,4.135,4.135,0,0,0-1.1.2,7.237,7.237,0,0,0-3.919.378,5.413,5.413,0,0,0-2.395,1.937,3.173,3.173,0,0,0-.316.63,12.021,12.021,0,0,0-4.473.708c-3.086,1.141-3.353,3.915-3.034,6.682-3.123.695-5.952,5.462-4.669,7.875a3.928,3.928,0,0,0,1.226,2.4,4.346,4.346,0,0,0-3.008,2.227c-2,1.963-1.929,6.024.053,8.177a3.224,3.224,0,0,0,.495.563.68.68,0,0,0,.522.157,1.444,1.444,0,0,0,1.7-2.1,5.927,5.927,0,0,1-.779-3.875,3.313,3.313,0,0,1,.356-1.118,1.371,1.371,0,0,1,.4-.106,1.412,1.412,0,0,0,1.326-1.176c.171-.055.351-.1.54-.152a1.357,1.357,0,0,0,.327-2.471A1.52,1.52,0,0,0,58.3,44.59c-1.414-1.682.121-4.57,1.959-5.522C60.531,39.458,61.322,39.4,61.4,38.864Z"/></g></g></svg>