<svg xmlns="http://www.w3.org/2000/svg" width="80" height="80" viewBox="0 0 80 80">
  <g id="web-design_1_" data-name="web-design (1)" transform="translate(0 -10.249)">
    <g id="Group_88" data-name="Group 88" transform="translate(0 10.249)">
      <g id="Group_87" data-name="Group 87">
        <path id="Path_81" data-name="Path 81" d="M78.438,10.249H1.562A1.6,1.6,0,0,0,0,11.877V28.619a1.6,1.6,0,0,0,1.562,1.628H78.438A1.6,1.6,0,0,0,80,28.619V11.877A1.6,1.6,0,0,0,78.438,10.249ZM76.875,26.991H3.125V13.5h73.75Z" transform="translate(0 -10.249)" fill="#2f4262"/>
      </g>
    </g>
    <g id="Group_90" data-name="Group 90" transform="translate(62.619 14.425)">
      <g id="Group_89" data-name="Group 89">
        <path id="Path_82" data-name="Path 82" d="M411.491,44.775l-1.276-1.329a5.352,5.352,0,0,0,.534-2.342,5.278,5.278,0,0,0-1.462-3.677,4.857,4.857,0,0,0-7.059,0,5.355,5.355,0,0,0,0,7.354,4.861,4.861,0,0,0,3.53,1.523A4.808,4.808,0,0,0,408,45.748l1.276,1.329a1.519,1.519,0,0,0,2.21,0A1.676,1.676,0,0,0,411.491,44.775Zm-4.414-2.3a1.814,1.814,0,0,1-2.64,0,2,2,0,0,1,0-2.75,1.817,1.817,0,0,1,2.64,0,2,2,0,0,1,0,2.75Z" transform="translate(-400.765 -35.906)" fill="#2f4262"/>
      </g>
    </g>
    <g id="Group_92" data-name="Group 92" transform="translate(52.897 21.567)">
      <g id="Group_91" data-name="Group 91">
        <path id="Path_83" data-name="Path 83" d="M341.635,81.1a1.693,1.693,0,0,0-.233-.586,1.623,1.623,0,0,0-.194-.247,1.566,1.566,0,0,0-.508-.352,1.531,1.531,0,0,0-.292-.093,1.486,1.486,0,0,0-.611,0,1.532,1.532,0,0,0-.292.093,1.566,1.566,0,0,0-.269.15,1.6,1.6,0,0,0-.239.2,1.715,1.715,0,0,0-.194.247,1.683,1.683,0,0,0-.144,1.527,1.743,1.743,0,0,0,.144.282,1.724,1.724,0,0,0,.194.247,1.585,1.585,0,0,0,.239.2,1.565,1.565,0,0,0,.269.15,1.6,1.6,0,0,0,.292.093,1.524,1.524,0,0,0,.611,0,1.519,1.519,0,0,0,.292-.093,1.579,1.579,0,0,0,.27-.15,1.5,1.5,0,0,0,.237-.2,1.669,1.669,0,0,0,.427-1.47Z" transform="translate(-338.541 -79.786)" fill="#2f4262"/>
      </g>
    </g>
    <g id="Group_94" data-name="Group 94" transform="translate(14.499 21.567)">
      <g id="Group_93" data-name="Group 93">
        <path id="Path_84" data-name="Path 84" d="M126.83,79.786H94.356a1.629,1.629,0,0,0,0,3.255H126.83a1.629,1.629,0,0,0,0-3.255Z" transform="translate(-92.794 -79.786)" fill="#2f4262"/>
      </g>
    </g>
    <g id="Group_96" data-name="Group 96" transform="translate(0.185 32.567)">
      <g id="Group_95" data-name="Group 95">
        <path id="Path_85" data-name="Path 85" d="M50.187,147.364H2.743a1.6,1.6,0,0,0-1.562,1.628v32.1a1.6,1.6,0,0,0,1.562,1.628H50.187a1.6,1.6,0,0,0,1.562-1.628v-32.1A1.6,1.6,0,0,0,50.187,147.364Zm-30.158,32.1H6.766L15.7,168.688l6.469,7.8Zm3.906,0,2.913-4.047h7.576a1.629,1.629,0,0,0,0-3.255H29.192l1.1-1.523H40.1l6.354,8.824Zm8.7-12.08,2.562-3.558,2.562,3.558Zm15.993,9.67L36.444,160.134a1.525,1.525,0,0,0-2.5,0l-9.858,13.692-7.205-8.692a1.522,1.522,0,0,0-2.365,0L4.306,177.448V150.619H48.625Z" transform="translate(-1.181 -147.364)" fill="#2f4262"/>
      </g>
    </g>
    <g id="Group_98" data-name="Group 98" transform="translate(15.984 37.691)">
      <g id="Group_97" data-name="Group 97">
        <path id="Path_86" data-name="Path 86" d="M107.819,178.846a5.759,5.759,0,1,0,5.524,5.754A5.649,5.649,0,0,0,107.819,178.846Zm0,8.253a2.5,2.5,0,1,1,2.4-2.5A2.453,2.453,0,0,1,107.819,187.1Z" transform="translate(-102.295 -178.846)" fill="#2f4262"/>
      </g>
    </g>
    <g id="Group_100" data-name="Group 100" transform="translate(52.861 32.567)">
      <g id="Group_99" data-name="Group 99">
        <path id="Path_87" data-name="Path 87" d="M363.888,147.364H339.875a1.6,1.6,0,0,0-1.562,1.628v32.1a1.6,1.6,0,0,0,1.563,1.628h24.014a1.6,1.6,0,0,0,1.563-1.628v-32.1A1.6,1.6,0,0,0,363.888,147.364Zm-1.562,32.1H341.437V150.619h20.889Z" transform="translate(-338.312 -147.364)" fill="#2f4262"/>
      </g>
    </g>
    <g id="Group_102" data-name="Group 102" transform="translate(58.061 38.503)">
      <g id="Group_101" data-name="Group 101">
        <path id="Path_88" data-name="Path 88" d="M386.771,183.835H373.158a1.629,1.629,0,0,0,0,3.255h13.613a1.629,1.629,0,0,0,0-3.255Z" transform="translate(-371.595 -183.835)" fill="#2f4262"/>
      </g>
    </g>
    <g id="Group_104" data-name="Group 104" transform="translate(58.061 45.035)">
      <g id="Group_103" data-name="Group 103">
        <path id="Path_89" data-name="Path 89" d="M386.771,223.969H373.158a1.629,1.629,0,0,0,0,3.255h13.613a1.629,1.629,0,0,0,0-3.255Z" transform="translate(-371.595 -223.969)" fill="#2f4262"/>
      </g>
    </g>
    <g id="Group_106" data-name="Group 106" transform="translate(58.061 51.568)">
      <g id="Group_105" data-name="Group 105">
        <path id="Path_90" data-name="Path 90" d="M386.771,264.1H373.158a1.629,1.629,0,0,0,0,3.255h13.613a1.629,1.629,0,0,0,0-3.255Z" transform="translate(-371.595 -264.103)" fill="#2f4262"/>
      </g>
    </g>
    <g id="Group_108" data-name="Group 108" transform="translate(58.061 58.1)">
      <g id="Group_107" data-name="Group 107">
        <path id="Path_91" data-name="Path 91" d="M374.686,305.547a1.686,1.686,0,0,0-.089-.3,1.741,1.741,0,0,0-.144-.282,1.634,1.634,0,0,0-.2-.247,1.51,1.51,0,0,0-1.7-.352,1.64,1.64,0,0,0-.27.15,1.583,1.583,0,0,0-.237.2,1.617,1.617,0,0,0-.194.247,1.758,1.758,0,0,0-.144.282,1.683,1.683,0,0,0,0,1.245,1.744,1.744,0,0,0,.144.282,1.622,1.622,0,0,0,.194.247,1.583,1.583,0,0,0,.237.2,1.64,1.64,0,0,0,.27.15,1.532,1.532,0,0,0,.292.093,1.5,1.5,0,0,0,.306.033,1.539,1.539,0,0,0,1.1-.477,1.726,1.726,0,0,0,.2-.247,1.755,1.755,0,0,0,.144-.282,1.7,1.7,0,0,0,.089-.941Z" transform="translate(-371.591 -304.238)" fill="#2f4262"/>
      </g>
    </g>
    <g id="Group_110" data-name="Group 110" transform="translate(63.985 58.1)">
      <g id="Group_109" data-name="Group 109">
        <path id="Path_92" data-name="Path 92" d="M418.757,304.236h-7.69a1.629,1.629,0,0,0,0,3.255h7.69a1.629,1.629,0,0,0,0-3.255Z" transform="translate(-409.505 -304.236)" fill="#2f4262"/>
      </g>
    </g>
    <g id="Group_112" data-name="Group 112" transform="translate(0.185 70.228)">
      <g id="Group_111" data-name="Group 111">
        <path id="Path_93" data-name="Path 93" d="M26.757,378.751H2.743a1.6,1.6,0,0,0-1.562,1.628v16.765a1.6,1.6,0,0,0,1.562,1.628H26.757a1.6,1.6,0,0,0,1.562-1.628V380.379A1.6,1.6,0,0,0,26.757,378.751Zm-1.562,16.765H4.306v-13.51H25.195Z" transform="translate(-1.181 -378.751)" fill="#2f4262"/>
      </g>
    </g>
    <g id="Group_114" data-name="Group 114" transform="translate(29.645 70.228)">
      <g id="Group_113" data-name="Group 113">
        <path id="Path_94" data-name="Path 94" d="M238.521,378.751H191.29a1.6,1.6,0,0,0-1.562,1.628v16.765a1.6,1.6,0,0,0,1.563,1.628h47.23a1.6,1.6,0,0,0,1.562-1.628V380.379A1.6,1.6,0,0,0,238.521,378.751Zm-1.562,16.765H192.853v-13.51h44.105Z" transform="translate(-189.728 -378.751)" fill="#2f4262"/>
      </g>
    </g>
    <g id="Group_116" data-name="Group 116" transform="translate(36.794 78.611)">
      <g id="Group_115" data-name="Group 115">
        <path id="Path_95" data-name="Path 95" d="M238.575,431.564a1.7,1.7,0,0,0-.089-.3,1.629,1.629,0,0,0-.144-.281,1.544,1.544,0,0,0-.194-.248,1.51,1.51,0,0,0-.238-.2,1.505,1.505,0,0,0-1.173-.244,1.612,1.612,0,0,0-.292.094,1.575,1.575,0,0,0-.269.15,1.51,1.51,0,0,0-.238.2,1.645,1.645,0,0,0-.2.248,1.628,1.628,0,0,0-.144.281,1.7,1.7,0,0,0-.089.3,1.711,1.711,0,0,0,0,.635,1.753,1.753,0,0,0,.089.306,1.676,1.676,0,0,0,.144.28,1.651,1.651,0,0,0,.2.247,1.543,1.543,0,0,0,1.1.477,1.489,1.489,0,0,0,.3-.031,1.537,1.537,0,0,0,.292-.094,1.426,1.426,0,0,0,.27-.15,1.492,1.492,0,0,0,.238-.2,1.548,1.548,0,0,0,.194-.247,1.675,1.675,0,0,0,.144-.28,1.752,1.752,0,0,0,.089-.306,1.627,1.627,0,0,0,0-.635Z" transform="translate(-235.481 -430.255)" fill="#2f4262"/>
      </g>
    </g>
    <g id="Group_118" data-name="Group 118" transform="translate(42.717 78.611)">
      <g id="Group_117" data-name="Group 117">
        <path id="Path_96" data-name="Path 96" d="M301.19,430.252H274.952a1.629,1.629,0,0,0,0,3.255H301.19a1.629,1.629,0,0,0,0-3.255Z" transform="translate(-273.389 -430.252)" fill="#2f4262"/>
      </g>
    </g>
  </g>
</svg>
