<svg width="456" height="388" viewBox="0 0 456 388" fill="none" xmlns="http://www.w3.org/2000/svg">
<ellipse cx="316.5" cy="36" rx="38.5" ry="36" fill="#E1E8F2"/>
<path d="M292.184 19.9831C292.184 17.4558 294.604 15.4068 297.588 15.4068H335.412C338.396 15.4068 340.816 17.4558 340.816 19.9831V52.017C340.816 54.5442 338.396 56.5932 335.412 56.5932H297.588C294.604 56.5932 292.184 54.5442 292.184 52.017V19.9831Z" fill="#ED6EEF"/>
<path d="M296.237 18.839V53.161H336.763V18.839H296.237ZM309.871 33.3629L312.457 27.7764H316.903L312.391 35.8433L317.008 44.0439H312.509L309.871 38.3568L307.246 44.0439H302.748L307.365 35.8433L302.84 27.7764H307.286L309.871 33.3629ZM317.944 37.6314C317.944 35.6499 318.34 34.1718 319.131 33.1959C319.923 32.22 321.074 31.7326 322.588 31.7326C323.687 31.7326 324.603 32.1353 325.332 32.9396V26.8841H329.091V44.0451H325.701L325.529 42.8164C324.765 43.7854 323.778 44.2693 322.574 44.2693C321.079 44.2693 319.938 43.7854 319.15 42.8164C318.363 41.8473 317.96 40.4253 317.943 38.549V37.6314H317.944ZM321.691 38.4243C321.691 39.6164 321.84 40.4493 322.14 40.9218C322.44 41.3943 322.945 41.6311 323.657 41.6311C324.396 41.6311 324.954 41.352 325.332 40.7937V35.2747C324.963 34.6786 324.408 34.3811 323.67 34.3811C322.984 34.3811 322.483 34.6157 322.167 35.0848C321.851 35.5538 321.691 36.389 321.691 37.588V38.4243Z" fill="#400935"/>
<ellipse cx="398.5" cy="143.5" rx="57.5" ry="55.5" fill="#E1E8F2"/>
<path d="M403.008 133.526H384.977C376.263 133.526 369.2 127.164 369.2 119.316C369.2 111.468 376.263 105.105 384.977 105.105H403.008V133.526Z" fill="#E64A19"/>
<path d="M400.754 161.947H384.977C376.263 161.947 369.2 155.585 369.2 147.737C369.2 139.888 376.263 133.526 384.977 133.526H400.754V161.947Z" fill="#7C4DFF"/>
<path d="M384.977 190.368C376.263 190.368 369.2 184.006 369.2 176.157C369.2 168.309 376.263 161.947 384.977 161.947H400.754V176.157C400.754 184.006 393.69 190.368 384.977 190.368Z" fill="#66BB6A"/>
<path d="M416.531 133.526H400.754V105.105H416.531C425.244 105.105 432.308 111.468 432.308 119.316C432.308 127.164 425.244 133.526 416.531 133.526Z" fill="#FF7043"/>
<path d="M416.531 161.947C425.244 161.947 432.308 155.585 432.308 147.737C432.308 139.888 425.244 133.526 416.531 133.526C407.817 133.526 400.754 139.888 400.754 147.737C400.754 155.585 407.817 161.947 416.531 161.947Z" fill="#29B6F6"/>
<ellipse cx="186.5" cy="57.5" rx="31.5" ry="27.5" fill="#E5E5E5"/>
<g clip-path="url(#clip0)">
<path d="M186.76 64.0932C175.753 64.0932 167.453 60.9099 167.453 56.4975C167.453 52.0852 175.753 48.8165 186.76 48.8165C197.767 48.8165 206.066 52.0852 206.066 56.4975C206.066 60.9099 197.767 64.0932 186.76 64.0932ZM186.76 51.3188C177.368 51.3188 170.229 54.1062 170.229 56.5513C170.229 58.9964 177.368 61.6763 186.76 61.6763C196.152 61.6763 203.291 58.8889 203.291 56.4438C203.291 53.9986 196.152 51.3188 186.76 51.3188Z" fill="#4E7AB5"/>
<path d="M179.425 71.8596C179.424 71.8596 179.425 71.8596 179.425 71.8596C178.527 71.8596 177.706 71.6753 176.985 71.3117C175.807 70.7168 174.963 69.6662 174.541 68.2717C173.435 64.6172 175.22 58.4724 179.09 52.6161C183.632 45.7501 189.663 41.138 194.095 41.138C194.993 41.138 195.814 41.3224 196.535 41.6859C197.711 42.2791 198.556 43.3288 198.978 44.7225C200.085 48.377 198.299 54.5227 194.427 60.379C189.889 67.2459 183.859 71.8596 179.425 71.8596ZM194.095 43.6984C191.308 43.6984 185.978 47.2769 181.591 53.9082C177.611 59.9301 176.444 64.9253 177.339 67.6094C177.582 68.334 177.923 68.8367 178.421 69.0876C180.701 70.2381 186.925 66.6553 191.927 59.0878C195.909 53.065 197.198 48.1764 196.181 45.3856C195.919 44.6679 195.597 44.1609 195.1 43.9109C194.817 43.7675 194.488 43.6984 194.095 43.6984Z" fill="#4E7AB5"/>
<path d="M194.095 71.8571C189.658 71.8562 183.628 67.2442 179.09 60.379C175.219 54.5227 173.435 48.377 174.541 44.7234C174.963 43.3288 175.807 42.2783 176.984 41.6843C177.706 41.3198 178.527 41.1355 179.423 41.1355C183.859 41.1355 189.888 45.7492 194.427 52.6161C198.298 58.4716 200.083 64.6173 198.977 68.2726C198.554 69.6663 197.71 70.716 196.535 71.3092C195.814 71.6727 194.992 71.8571 194.095 71.8571ZM179.423 43.6958C179.031 43.6958 178.702 43.7658 178.42 43.9075C177.922 44.1584 177.576 44.6594 177.338 45.3857C176.443 48.1235 177.61 53.0658 181.59 59.0878C185.973 65.7182 191.304 69.2967 194.094 69.2967C194.488 69.2967 194.817 69.2267 195.099 69.0842C195.596 68.835 195.952 68.3366 196.179 67.6095C197.016 64.9245 195.907 59.9284 191.926 53.9073C187.543 47.2752 182.213 43.6958 179.423 43.6958Z" fill="#4E7AB5"/>
<path d="M190.139 56.4975C190.139 58.149 188.628 59.4846 186.76 59.4846C184.892 59.4846 183.381 58.149 183.381 56.4975C183.381 54.8461 184.892 53.5105 186.76 53.5105C188.628 53.5105 190.139 54.8461 190.139 56.4975Z" fill="#8BB7F0"/>
<path d="M186.76 59.9113C184.63 59.9113 182.899 58.3802 182.899 56.4975C182.899 54.6148 184.63 53.0837 186.76 53.0837C188.889 53.0837 190.621 54.6148 190.621 56.4975C190.621 58.3802 188.889 59.9113 186.76 59.9113ZM186.76 53.9372C185.163 53.9372 183.864 55.0859 183.864 56.4975C183.864 57.9091 185.163 59.0579 186.76 59.0579C188.357 59.0579 189.656 57.9091 189.656 56.4975C189.656 55.0859 188.357 53.9372 186.76 53.9372Z" fill="#4E7AB5"/>
<path d="M186.76 63.3832C176.475 63.3832 168.419 60.3585 168.419 56.4975C168.419 52.6365 176.475 49.6119 186.76 49.6119C197.044 49.6119 205.101 52.6365 205.101 56.4975C205.101 60.3585 197.044 63.3832 186.76 63.3832ZM186.76 50.4654C177.341 50.4654 169.384 53.228 169.384 56.4975C169.384 59.7671 177.341 62.5297 186.76 62.5297C196.179 62.5297 204.136 59.7679 204.136 56.4975C204.136 53.2271 196.179 50.4654 186.76 50.4654Z" fill="#8BB7F0"/>
<path d="M179.425 71.0061C179.424 71.0061 179.425 71.0061 179.425 71.0061C178.697 71.0061 178.037 70.8594 177.463 70.57C176.501 70.0844 175.832 69.2369 175.472 68.0507C174.429 64.6053 176.176 58.7156 179.923 53.0462C184.23 46.5378 190.057 41.9915 194.095 41.9915C194.823 41.9915 195.484 42.1383 196.057 42.4276C197.017 42.9123 197.686 43.759 198.046 44.9435C199.09 48.3889 197.343 54.2786 193.594 59.9489C189.29 66.459 183.464 71.0061 179.425 71.0061ZM194.095 42.8449C190.443 42.8449 184.833 47.3161 180.758 53.4772C177.191 58.8752 175.442 64.6428 176.406 67.8305C176.696 68.7889 177.213 69.4606 177.943 69.8292C178.368 70.0435 178.866 70.1527 179.424 70.1527C183.078 70.1527 188.687 65.6806 192.759 59.5179C196.328 54.119 198.078 48.3505 197.112 45.1646C196.822 44.2079 196.306 43.5362 195.577 43.1692C195.151 42.9542 194.653 42.8449 194.095 42.8449Z" fill="#8BB7F0"/>
<path d="M194.095 71.0036C190.054 71.0027 184.226 66.4573 179.923 59.9489C176.176 54.2794 174.43 48.3898 175.473 44.9444C175.832 43.7581 176.501 42.9106 177.464 42.425C178.037 42.1357 178.697 41.9889 179.423 41.9889C183.463 41.9889 189.29 46.5361 193.593 53.0462C197.342 58.7148 199.088 64.6044 198.044 68.0515C197.685 69.2369 197.016 70.0836 196.056 70.5675C195.483 70.8568 194.823 71.0036 194.095 71.0036ZM179.423 42.8424C178.866 42.8424 178.367 42.9516 177.942 43.1658C177.212 43.5345 176.695 44.2062 176.405 45.1646C175.441 48.3514 177.19 54.1198 180.757 59.5179C184.829 65.6781 190.44 70.1493 194.095 70.1501C194.653 70.1501 195.152 70.0409 195.578 69.8258C196.306 69.4588 196.822 68.7872 197.112 67.8305C198.077 64.6428 196.328 58.8744 192.76 53.4772C188.687 47.3153 183.079 42.8424 179.423 42.8424Z" fill="#8BB7F0"/>
</g>
<ellipse cx="55" cy="133.5" rx="55" ry="47.5" fill="#E1E8F2"/>
<path d="M55.4748 128.042L45.2971 112.667H14.7621L55.4748 174.167L96.1875 112.667H65.6525L55.4748 128.042Z" fill="#81C784"/>
<path d="M65.6525 112.667L55.4748 128.042L45.2971 112.667H30.5954L55.4748 150.25L80.3542 112.667H65.6525Z" fill="#455A64"/>
<g clip-path="url(#clip1)">
<path d="M257 339C257 366.06 233.045 388 203.5 388C176.239 388 153.74 369.328 150.423 345.183C150.143 343.131 150 341.065 150 339C150 335.165 150.481 331.431 151.389 327.849C156.903 306.162 178.142 290 203.5 290C228.797 290 249.992 306.079 255.563 327.688C256.305 330.555 256.757 333.479 256.924 336.425C256.976 337.283 257 338.142 257 339Z" fill="#4E7AB5" fill-opacity="0.26"/>
<path d="M200.826 342.935V330.194L188.78 323.827L176.733 330.194V342.935L188.78 349.305L200.826 342.935Z" fill="#3B8739"/>
<path d="M248.265 341L256.115 345.153L248.265 349.305L236.219 342.935V330.198L248.265 323.827L255.563 327.688C256.305 330.555 256.757 333.479 256.924 336.425L252.461 338.786V334.351L248.265 332.133L244.069 334.351V338.786L248.265 341Z" fill="#333333"/>
<path d="M250.606 337.802V335.327L248.27 334.089L245.929 335.327V337.802L248.27 339.039L250.606 337.802Z" fill="#66A060"/>
<path d="M171.043 330.198V346.996L163.007 342.8V334.185L158.997 332.063L154.986 334.185V342.795L150.423 345.179C150.143 343.131 150 341.065 150 339C150 335.165 150.481 331.431 151.389 327.849L158.997 323.827L171.043 330.198Z" fill="#333333"/>
<path d="M188.775 323.823L200.821 342.93L188.775 349.301L176.733 330.193L188.775 323.823Z" fill="#6DA75D"/>
<path d="M176.733 342.935L180.868 336.756L176.733 330.194V342.935Z" fill="#55A344"/>
<path d="M196.806 336.564L200.821 330.194L188.78 323.827L196.806 336.564Z" fill="#639D57"/>
<path d="M222.426 309.06V325.962L218.387 323.827L206.34 330.198V342.939L218.387 349.31L230.433 342.939V312.986L222.426 309.06ZM222.402 338.686L218.387 340.808L214.371 338.686V334.442L218.387 332.32L222.402 334.442V338.686Z" fill="#333333"/>
<path d="M208.967 358.661C208.967 358.661 208.729 356.8 206.555 356.8C204.38 356.8 202.891 357.062 202.891 358.164C202.891 359.267 207.121 359.267 208.729 359.702C210.337 360.134 211.755 361.262 211.046 363.254C210.337 365.245 208.163 365.463 204.804 365.463C201.445 365.463 200.688 362.91 200.688 361.912H202.582C202.582 361.912 202.344 363.472 204.566 363.729C206.788 363.986 208.914 364.134 209.2 362.561C209.58 360.482 202.011 361.52 201.35 359.485C200.788 357.763 201.112 355.502 204.894 355.153C208.676 354.805 210.756 356.338 210.756 358.617L208.967 358.661Z" fill="#66A060"/>
<path d="M190.692 366.779L194.874 368.988C196.977 370.099 199.603 368.709 199.603 366.487V355.48H197.9V366.051C197.9 367.263 196.468 368.025 195.317 367.415L192.4 365.873V354.591L203.067 348.953L213.734 354.591V365.873L203.067 371.511L199.994 369.886L197.986 370.627L203.067 373.311L215.437 366.77V353.689L203.067 347.149L190.697 353.689L190.692 366.779Z" fill="#66A060"/>
</g>
<ellipse cx="232" cy="160.5" rx="79" ry="73.5" fill="#4E7AB5" fill-opacity="0.17"/>
<g clip-path="url(#clip2)">
<path d="M239.655 135.896L235.955 142.297L223.29 120.401L184.407 187.598H210.775C210.768 188.432 210.928 189.259 211.247 190.032C211.565 190.805 212.036 191.509 212.632 192.104C213.228 192.698 213.937 193.171 214.719 193.497C215.501 193.822 216.341 193.993 217.191 194H184.407C183.278 193.992 182.172 193.689 181.2 193.124C180.229 192.559 179.428 191.75 178.879 190.782C178.317 189.809 178.021 188.709 178.021 187.59C178.021 186.471 178.317 185.371 178.879 184.398L217.736 117.201C218.288 116.231 219.094 115.423 220.07 114.86C221.047 114.298 222.158 114.002 223.29 114.002C224.422 114.002 225.534 114.298 226.51 114.86C227.487 115.423 228.293 116.231 228.845 117.201L239.655 135.896V135.896Z" fill="#00C58E"/>
<path d="M267.719 184.398L243.364 142.297L239.655 135.896L235.955 142.297L211.592 184.398C211.03 185.375 210.735 186.477 210.735 187.599C210.735 188.72 211.03 189.823 211.592 190.799C212.146 191.768 212.952 192.575 213.928 193.137C214.904 193.699 216.015 193.997 217.146 194H262.164C263.297 193.995 264.409 193.695 265.385 193.129C266.362 192.564 267.167 191.754 267.719 190.782C268.28 189.805 268.575 188.703 268.575 187.581C268.575 186.46 268.28 185.357 267.719 184.381V184.398ZM217.146 187.599L239.655 148.69L262.164 187.599H217.146Z" fill="#2F495E"/>
<path d="M285.139 190.782C284.586 191.75 283.781 192.556 282.807 193.119C281.832 193.681 280.723 193.979 279.593 193.983H262.164C263.013 193.976 263.853 193.805 264.634 193.479C265.416 193.154 266.125 192.68 266.72 192.086C267.315 191.491 267.785 190.788 268.102 190.015C268.42 189.242 268.579 188.415 268.571 187.581H279.575L248.365 133.644L243.364 142.271L239.655 135.87L242.811 130.418C243.363 129.448 244.169 128.64 245.145 128.077C246.122 127.515 247.233 127.219 248.365 127.219C249.497 127.219 250.609 127.515 251.585 128.077C252.562 128.64 253.368 129.448 253.92 130.418L285.139 184.398C285.704 185.373 286.002 186.476 286.002 187.599C286.002 188.721 285.704 189.824 285.139 190.799V190.782Z" fill="#108775"/>
</g>
<ellipse cx="110" cy="252" rx="43" ry="35" fill="#8BB7F0" fill-opacity="0.4"/>
<path d="M130.083 259.79C129.9 258.961 129.148 257.994 127.631 257.994C127.321 257.994 126.982 258.033 126.596 258.113C125.888 258.259 125.285 258.33 124.754 258.354C128.887 251.314 131.57 241.535 128.913 238.14C125.412 233.667 120.699 232.999 118.202 232.999L117.967 233C117.038 233.015 116.074 233.129 115.104 233.339L111.521 234.113C111.033 234.052 110.536 234.009 110.018 234H109.988H109.972L109.82 233.999C108.227 233.999 106.774 234.337 105.479 234.972L104.228 234.479C102.508 233.801 99.92 232.994 97.36 232.994C97.216 232.994 97.073 232.997 96.929 233.002C94.407 233.093 92.241 234.05 90.664 235.769C88.696 237.915 87.8 241.054 88.003 245.1C88.013 245.309 90.461 266 97.4 266H97.425L97.489 265.999C98.39 265.977 99.249 265.615 100.052 264.922C100.665 265.382 101.458 265.654 102.197 265.762C102.685 265.877 103.563 266.04 104.615 266.04C105.899 266.04 107.057 265.777 108.055 265.302C108.054 266.182 108.049 267.296 108.039 268.72L108.038 268.795L108.043 268.87C108.14 270.289 108.385 271.568 108.754 272.571C109.805 275.43 111.62 277.005 113.865 277.005C113.958 277.005 114.053 277.002 114.149 276.996C115.995 276.882 117.866 275.845 119.153 274.224C120.546 272.469 120.868 270.617 120.992 269.198L121 269.111V269.023V264.944L121.103 264.954L121.539 264.992L121.581 264.996L121.623 264.998C121.747 265.004 121.875 265.006 122.004 265.006C123.511 265.006 125.366 264.615 126.62 264.032C127.819 263.476 130.559 261.948 130.083 259.79Z" fill="white"/>
<path d="M119 264C119 263.795 119.012 263.624 119.018 263.435C119.008 263.184 119 263 119 263C119 263 119.012 262.991 119.032 262.978C119.181 260.305 119.918 259.275 120.707 258.688C120.597 258.535 120.47 258.37 120.351 258.213C120.018 257.776 119.603 257.234 119.159 256.539L119.077 256.381C119.01 256.217 118.848 255.934 118.642 255.562C117.459 253.422 114.997 248.97 116.682 246.158C117.42 244.926 118.804 244.216 120.803 244.041C119.986 241.718 116.925 236.115 109.985 236C109.983 236 109.981 236 109.979 236C103.938 235.902 101.953 241.392 101.307 244.672C102.197 244.295 103.213 244.066 104.143 244.066C104.157 244.066 104.172 244.066 104.186 244.066C106.476 244.083 108.051 245.305 108.509 247.42C108.844 248.972 109.005 250.33 109.001 251.573C108.991 254.292 108.443 255.722 107.959 256.984L107.805 257.392C107.681 257.726 107.55 258.037 107.426 258.329C107.3 258.627 107.189 258.892 107.108 259.131C107.592 259.241 107.972 259.396 108.233 259.511L108.384 259.577C108.431 259.597 108.478 259.62 108.521 259.646C109.369 260.162 109.897 260.955 110.01 261.879C110.071 262.377 110.061 265.772 110.04 268.734C110.127 270.019 110.345 271.098 110.633 271.88C111.042 272.994 112.064 275.121 114.027 274.999C115.397 274.914 116.714 274.08 117.588 272.98C118.526 271.799 118.872 270.493 119.002 269.022V264H119Z" fill="#0277BD"/>
<path d="M101.114 258.917C99.501 257.234 98.715 254.97 99.01 252.861C99.295 250.826 99.134 248.834 99.047 247.763C99.018 247.406 98.999 247.14 99 246.993C99 246.985 99.002 246.978 99.003 246.97C99.003 246.966 99.001 246.963 99.001 246.959C99.122 243.938 100.287 239.172 103.494 236.339C101.932 235.724 99.388 234.913 97 235C93.258 235.136 89.636 237.724 90 245C90.137 247.73 93.222 264.103 97.44 264C98.043 263.985 98.669 263.598 99.312 262.824C100.329 261.601 101.317 260.492 102.02 259.72C101.705 259.481 101.401 259.217 101.114 258.917ZM123.023 244.731C123.038 244.885 123.025 245.017 123.001 245.139C123.032 246.059 122.933 246.952 122.832 247.816C122.758 248.452 122.682 249.109 122.661 249.768C122.64 250.413 122.731 251.05 122.827 251.724C123.052 253.302 123.286 255.083 122.062 257.161C122.287 257.457 122.485 257.732 122.643 257.998C127.253 250.523 129.111 241.637 127.338 239.372C124.655 235.944 120.941 234.952 117.999 235C117.078 235.015 116.241 235.139 115.526 235.294C120.602 237.754 122.863 243.026 123.023 244.731ZM127 260.071C124.335 260.621 123.053 260.328 122.431 259.945C122.331 260.017 122.231 260.078 122.138 260.135C121.766 260.36 121.177 260.718 121.033 262.917C121.116 262.933 121.189 262.942 121.279 262.961L121.714 263C123.034 263.06 124.763 262.69 125.777 262.219C127.962 261.205 129.153 259.627 127 260.071ZM108.023 262.119C107.986 261.821 107.825 261.58 107.531 261.387L107.423 261.34C107.062 261.181 106.653 261 106 261H105.996C105.869 261.01 105.743 261.019 105.616 261.019C105.564 261.019 105.513 261.012 105.461 261.01C104.987 261.375 104.313 261.657 102.645 262C99.665 262.759 101.424 263.655 102.567 263.794C103.673 264.071 106.302 264.408 108.048 262.985C108.043 262.537 108.035 262.229 108.023 262.119Z" fill="#0277BD"/>
<path d="M106.681 248.501C106.389 248.803 105.928 249.067 105.419 248.985C104.591 248.851 103.956 247.852 104.002 247.477C104.046 247.103 104.753 246.908 105.58 247.042C105.867 247.089 106.128 247.17 106.348 247.27C106.028 246.582 105.449 246.185 104.566 246.088C103.001 245.914 101.34 246.732 101.006 247.185C101.013 247.295 101.026 247.436 101.039 247.602C101.132 248.749 101.304 250.886 100.989 253.139C100.781 254.624 101.382 256.308 102.556 257.534C103.313 258.324 104.197 258.824 105.069 258.972C105.18 258.494 105.378 258.028 105.582 257.547C105.695 257.282 105.815 257 105.928 256.695L106.09 256.268C106.533 255.113 106.99 253.918 106.999 251.565C107.003 250.66 106.892 249.627 106.681 248.501ZM120.847 252.007C120.743 251.278 120.636 250.523 120.662 249.704C120.685 248.962 120.767 248.262 120.846 247.585C120.908 247.052 120.956 246.54 120.984 246.035C119.695 246.142 118.839 246.514 118.433 247.143C118.601 247.086 118.791 247.041 119.001 247.014C119.893 246.898 120.544 247.155 120.619 247.651C120.674 248.014 120.366 248.356 120.231 248.487C119.954 248.756 119.605 248.929 119.25 248.975C119.186 248.983 119.121 248.987 119.058 248.987C118.705 248.987 118.368 248.866 118.109 248.687C118.221 250.66 119.676 253.299 120.392 254.594C120.545 254.871 120.663 255.092 120.761 255.282C121.154 254.163 121.009 253.143 120.847 252.007Z" fill="#0277BD"/>
<ellipse cx="316" cy="268" rx="43" ry="35" fill="#8BB7F0" fill-opacity="0.2"/>
<path d="M304 281L319.234 252.436C319.555 251.834 320.423 251.845 320.728 252.456L326 263L304 281Z" fill="#FF8F00"/>
<path d="M304 280.992L309.546 246.793C309.691 245.898 310.893 245.704 311.313 246.508L322 266.992L304 280.992Z" fill="#FFA000"/>
<path d="M304.008 280.986L304.208 280.829L321.737 266.488L316.793 257.012L304.008 280.986Z" fill="#FF6F00"/>
<path d="M304 281L330.666 255.287C331.225 254.748 332.158 255.066 332.272 255.834L336 281L321 289.743C320.391 290.085 319.648 290.085 319.039 289.743L304 281Z" fill="#FFC400"/>
<defs>
<clipPath id="clip0">
<rect width="38.6129" height="34.1379" fill="white" transform="translate(167.453 39.4286)"/>
</clipPath>
<clipPath id="clip1">
<rect width="107" height="98" fill="white" transform="translate(150 290)"/>
</clipPath>
<clipPath id="clip2">
<rect width="108" height="80" fill="white" transform="translate(178 114)"/>
</clipPath>
</defs>
</svg>
