<svg xmlns="http://www.w3.org/2000/svg" width="80" height="80" viewBox="0 0 80 80">
  <g id="graphic-design" transform="translate(-10.001 0)">
    <path id="Path_64" data-name="Path 64" d="M88.058,1.867A6.789,6.789,0,0,0,79.2,1.439L55.907,19.724H16.513A6.4,6.4,0,0,0,10,25.979V63.692a6.4,6.4,0,0,0,6.511,6.255H35.018v5.365h-4.1a2.345,2.345,0,1,0,0,4.687h26.1a2.345,2.345,0,1,0,0-4.687h-4.1V69.948H71.418a6.4,6.4,0,0,0,6.512-6.255V22.829L88.505,10.375a6.153,6.153,0,0,0-.447-8.508ZM54.336,29.1a4.818,4.818,0,0,1,1.889-3.577l4.058-3.185,6.479,6.226-3.322,3.912a5.275,5.275,0,0,1-7.605.365A4.774,4.774,0,0,1,54.336,29.1ZM52.378,44.225c-1.081,1.039-2.881,1.517-5.349,1.421a23.058,23.058,0,0,0-4.831.289,20.512,20.512,0,0,0,.3-4.643c-.1-2.372.4-4.1,1.479-5.14a6.112,6.112,0,0,1,8.4,0A5.558,5.558,0,0,1,52.378,44.225ZM48.035,75.313H39.9V69.948h8.139Zm25.017-11.62a1.6,1.6,0,0,1-1.634,1.568H16.513a1.6,1.6,0,0,1-1.634-1.568v-2H73.052Zm0-6.687H14.879V25.979a1.6,1.6,0,0,1,1.634-1.568H50.88a9.359,9.359,0,0,0-1.415,4.454,9.19,9.19,0,0,0,0,1,11.446,11.446,0,0,0-1.289-.076,10.972,10.972,0,0,0-7.649,3.045c-2.083,2-3.06,4.909-2.9,8.643.208,4.969-1.507,6.964-1.64,7.111a2.279,2.279,0,0,0,.04,3.275,2.51,2.51,0,0,0,3.408.038c.153-.128,2.229-1.776,7.4-1.576,3.886.15,6.911-.789,8.994-2.79a10.138,10.138,0,0,0,3.085-8.579c.184.01.369.016.555.016q.248,0,.5-.012a10.175,10.175,0,0,0,7.252-3.52l5.836-6.873V57.006Zm-33.58-5.138s-.012.013-.038.036Zm-3.449-3.314-.037.036C36.01,48.565,36.023,48.553,36.023,48.553Zm48.7-41.142L69.86,24.917l-5.782-5.556L82.287,5.069a1.78,1.78,0,0,1,2.322.112,1.613,1.613,0,0,1,.117,2.23Z" fill="#2f4262"/>
  </g>
</svg>
